G04 (created by PCBNEW (2013-07-07 BZR 4022)-stable) date 1/28/2014 6:44:28 PM*
%MOIN*%
G04 Gerber Fmt 3.4, Leading zero omitted, Abs format*
%FSLAX34Y34*%
G01*
G70*
G90*
G04 APERTURE LIST*
%ADD10C,0.00590551*%
%ADD11R,0.0579X0.0165*%
%ADD12R,0.045X0.02*%
%ADD13R,0.06X0.06*%
%ADD14C,0.06*%
%ADD15C,0.055*%
%ADD16R,0.05X0.015*%
%ADD17C,0.01*%
G04 APERTURE END LIST*
G54D10*
G54D11*
X78498Y-72600D03*
X78498Y-72856D03*
X78498Y-73112D03*
X78498Y-73368D03*
X80702Y-73368D03*
X78498Y-71832D03*
X78498Y-72088D03*
X78498Y-72344D03*
X80702Y-73112D03*
X80702Y-72856D03*
X80702Y-72600D03*
X80702Y-72344D03*
X80702Y-72088D03*
X80702Y-71832D03*
G54D12*
X80750Y-58150D03*
X80750Y-59150D03*
X80750Y-59650D03*
X80750Y-60150D03*
X80750Y-60650D03*
X80750Y-61150D03*
X80750Y-61650D03*
X78250Y-61650D03*
X78250Y-61150D03*
X78250Y-60650D03*
X78250Y-60150D03*
X78250Y-59650D03*
X78250Y-59150D03*
X78250Y-58650D03*
X78250Y-58150D03*
X80750Y-58650D03*
G54D13*
X83800Y-56400D03*
G54D14*
X83800Y-57400D03*
X83800Y-58400D03*
X83800Y-59400D03*
X83800Y-60400D03*
X83800Y-61400D03*
X83800Y-62400D03*
X83800Y-63400D03*
G54D13*
X75200Y-63400D03*
G54D14*
X75200Y-62400D03*
X75200Y-61400D03*
G54D15*
X75200Y-60400D03*
G54D14*
X75200Y-59400D03*
X75200Y-58400D03*
X75200Y-57400D03*
X75200Y-56400D03*
G54D13*
X83800Y-69600D03*
G54D14*
X83800Y-70600D03*
X83800Y-71600D03*
X83800Y-72600D03*
X83800Y-73600D03*
X83800Y-74600D03*
X83800Y-75600D03*
G54D13*
X75200Y-75600D03*
G54D14*
X75200Y-74600D03*
X75200Y-73600D03*
X75200Y-72600D03*
X75200Y-71600D03*
X75200Y-70600D03*
X75200Y-69600D03*
G54D13*
X83800Y-65100D03*
G54D14*
X83800Y-66100D03*
X83800Y-67100D03*
X83800Y-68100D03*
G54D13*
X75200Y-68000D03*
G54D14*
X75200Y-67000D03*
X75200Y-66000D03*
X75200Y-65000D03*
G54D16*
X78650Y-66216D03*
X78650Y-66472D03*
X78650Y-66728D03*
X78650Y-66984D03*
X80350Y-66984D03*
X80350Y-66728D03*
X80350Y-66472D03*
X80350Y-66216D03*
G54D17*
X80350Y-66984D02*
X82684Y-66984D01*
X82684Y-66984D02*
X83800Y-68100D01*
X78498Y-72856D02*
X75944Y-72856D01*
X75944Y-72856D02*
X75200Y-73600D01*
X78498Y-72600D02*
X75200Y-72600D01*
X78498Y-72344D02*
X75944Y-72344D01*
X75944Y-72344D02*
X75200Y-71600D01*
X78498Y-72088D02*
X76688Y-72088D01*
X76688Y-72088D02*
X75200Y-70600D01*
X78498Y-71832D02*
X77432Y-71832D01*
X77432Y-71832D02*
X75200Y-69600D01*
X80702Y-71832D02*
X81568Y-71832D01*
X81568Y-71832D02*
X83800Y-69600D01*
X80350Y-66728D02*
X83428Y-66728D01*
X83428Y-66728D02*
X83800Y-67100D01*
X80350Y-66472D02*
X83428Y-66472D01*
X83428Y-66472D02*
X83800Y-66100D01*
X80350Y-66216D02*
X82684Y-66216D01*
X82684Y-66216D02*
X83800Y-65100D01*
X78650Y-66984D02*
X76216Y-66984D01*
X76216Y-66984D02*
X75200Y-68000D01*
X80702Y-72088D02*
X82312Y-72088D01*
X82312Y-72088D02*
X83800Y-70600D01*
X78650Y-66728D02*
X75472Y-66728D01*
X75472Y-66728D02*
X75200Y-67000D01*
X78650Y-66472D02*
X75672Y-66472D01*
X75672Y-66472D02*
X75200Y-66000D01*
X78650Y-66216D02*
X76416Y-66216D01*
X76416Y-66216D02*
X75200Y-65000D01*
X78250Y-58650D02*
X76450Y-58650D01*
X76450Y-58650D02*
X75200Y-57400D01*
X78250Y-58150D02*
X76950Y-58150D01*
X76950Y-58150D02*
X75200Y-56400D01*
X78250Y-59150D02*
X75950Y-59150D01*
X75950Y-59150D02*
X75200Y-58400D01*
X78250Y-59650D02*
X75450Y-59650D01*
X75450Y-59650D02*
X75200Y-59400D01*
X78250Y-60150D02*
X75450Y-60150D01*
X75450Y-60150D02*
X75200Y-60400D01*
X78250Y-60650D02*
X75950Y-60650D01*
X75950Y-60650D02*
X75200Y-61400D01*
X78250Y-61150D02*
X76450Y-61150D01*
X76450Y-61150D02*
X75200Y-62400D01*
X80702Y-72344D02*
X83056Y-72344D01*
X83056Y-72344D02*
X83800Y-71600D01*
X78250Y-61650D02*
X76950Y-61650D01*
X76950Y-61650D02*
X75200Y-63400D01*
X80750Y-61650D02*
X82050Y-61650D01*
X82050Y-61650D02*
X83800Y-63400D01*
X80750Y-61150D02*
X82550Y-61150D01*
X82550Y-61150D02*
X83800Y-62400D01*
X80750Y-60650D02*
X83050Y-60650D01*
X83050Y-60650D02*
X83800Y-61400D01*
X80750Y-60150D02*
X83550Y-60150D01*
X83550Y-60150D02*
X83800Y-60400D01*
X80750Y-59650D02*
X83550Y-59650D01*
X83550Y-59650D02*
X83800Y-59400D01*
X80750Y-59150D02*
X83050Y-59150D01*
X83050Y-59150D02*
X83800Y-58400D01*
X80750Y-58650D02*
X82550Y-58650D01*
X82550Y-58650D02*
X83800Y-57400D01*
X80750Y-58150D02*
X82050Y-58150D01*
X82050Y-58150D02*
X83800Y-56400D01*
X80702Y-72600D02*
X83800Y-72600D01*
X80702Y-72856D02*
X83056Y-72856D01*
X83056Y-72856D02*
X83800Y-73600D01*
X80702Y-73112D02*
X82312Y-73112D01*
X82312Y-73112D02*
X83800Y-74600D01*
X80702Y-73368D02*
X81568Y-73368D01*
X81568Y-73368D02*
X83800Y-75600D01*
X78498Y-73368D02*
X77432Y-73368D01*
X77432Y-73368D02*
X75200Y-75600D01*
X78498Y-73112D02*
X76688Y-73112D01*
X76688Y-73112D02*
X75200Y-74600D01*
M02*
