G04 (created by PCBNEW (2013-07-07 BZR 4022)-stable) date 1/28/2014 6:44:28 PM*
%MOIN*%
G04 Gerber Fmt 3.4, Leading zero omitted, Abs format*
%FSLAX34Y34*%
G01*
G70*
G90*
G04 APERTURE LIST*
%ADD10C,0.00590551*%
%ADD11R,0.06X0.06*%
%ADD12C,0.06*%
%ADD13C,0.055*%
%ADD14R,0.065X0.12*%
%ADD15R,0.24X0.24*%
%ADD16R,0.0315X0.0394*%
%ADD17R,0.144X0.08*%
%ADD18R,0.04X0.08*%
%ADD19R,0.0236X0.0157*%
%ADD20R,0.015748X0.011811*%
%ADD21R,0.055X0.035*%
%ADD22R,0.08X0.06*%
%ADD23R,0.05X0.1*%
%ADD24R,0.045X0.025*%
%ADD25R,0.0709X0.1063*%
G04 APERTURE END LIST*
G54D10*
G54D11*
X83800Y-56400D03*
G54D12*
X83800Y-57400D03*
X83800Y-58400D03*
X83800Y-59400D03*
X83800Y-60400D03*
X83800Y-61400D03*
X83800Y-62400D03*
X83800Y-63400D03*
G54D11*
X75200Y-63400D03*
G54D12*
X75200Y-62400D03*
X75200Y-61400D03*
G54D13*
X75200Y-60400D03*
G54D12*
X75200Y-59400D03*
X75200Y-58400D03*
X75200Y-57400D03*
X75200Y-56400D03*
G54D11*
X83800Y-69600D03*
G54D12*
X83800Y-70600D03*
X83800Y-71600D03*
X83800Y-72600D03*
X83800Y-73600D03*
X83800Y-74600D03*
X83800Y-75600D03*
G54D11*
X75200Y-75600D03*
G54D12*
X75200Y-74600D03*
X75200Y-73600D03*
X75200Y-72600D03*
X75200Y-71600D03*
X75200Y-70600D03*
X75200Y-69600D03*
G54D11*
X83800Y-65100D03*
G54D12*
X83800Y-66100D03*
X83800Y-67100D03*
X83800Y-68100D03*
G54D11*
X75200Y-68000D03*
G54D12*
X75200Y-67000D03*
X75200Y-66000D03*
X75200Y-65000D03*
G54D14*
X78600Y-76800D03*
G54D15*
X77700Y-74300D03*
G54D14*
X76800Y-76800D03*
G54D16*
X76700Y-67167D03*
X76325Y-68033D03*
X77075Y-68033D03*
G54D17*
X77700Y-69300D03*
G54D18*
X77700Y-71900D03*
X76800Y-71900D03*
X78600Y-71900D03*
G54D19*
X74100Y-63077D03*
X74100Y-62723D03*
G54D20*
X74100Y-56118D03*
X74100Y-55881D03*
G54D21*
X84900Y-72775D03*
X84900Y-72025D03*
G54D22*
X84900Y-64950D03*
X84900Y-63650D03*
G54D23*
X80900Y-58600D03*
X82100Y-58600D03*
G54D14*
X82200Y-76800D03*
G54D15*
X81300Y-74300D03*
G54D14*
X80400Y-76800D03*
G54D17*
X81300Y-69300D03*
G54D18*
X81300Y-71900D03*
X80400Y-71900D03*
X82200Y-71900D03*
G54D16*
X78500Y-67167D03*
X78125Y-68033D03*
X78875Y-68033D03*
X80500Y-67167D03*
X80125Y-68033D03*
X80875Y-68033D03*
X82300Y-67167D03*
X81925Y-68033D03*
X82675Y-68033D03*
G54D20*
X74100Y-57018D03*
X74100Y-56781D03*
X74100Y-57918D03*
X74100Y-57681D03*
X74100Y-58581D03*
X74100Y-58818D03*
X74100Y-59718D03*
X74100Y-59481D03*
G54D19*
X74100Y-64023D03*
X74100Y-64377D03*
X74100Y-65323D03*
X74100Y-65677D03*
X74100Y-66623D03*
X74100Y-66977D03*
G54D24*
X74100Y-70600D03*
X74100Y-70000D03*
X74100Y-71400D03*
X74100Y-72000D03*
X74100Y-72800D03*
X74100Y-73400D03*
X74100Y-74800D03*
X74100Y-74200D03*
G54D21*
X84900Y-74575D03*
X84900Y-73825D03*
X84900Y-69175D03*
X84900Y-68425D03*
X84900Y-70225D03*
X84900Y-70975D03*
G54D22*
X84900Y-62450D03*
X84900Y-61150D03*
X84900Y-59950D03*
X84900Y-58650D03*
X84900Y-57450D03*
X84900Y-56150D03*
G54D25*
X76555Y-58600D03*
X78445Y-58600D03*
X76555Y-60600D03*
X78445Y-60600D03*
X76555Y-62600D03*
X78445Y-62600D03*
X76555Y-64600D03*
X78445Y-64600D03*
G54D23*
X80900Y-60600D03*
X82100Y-60600D03*
X80900Y-62600D03*
X82100Y-62600D03*
X80900Y-64600D03*
X82100Y-64600D03*
M02*
