G04 (created by PCBNEW (2013-07-07 BZR 4022)-stable) date 1/28/2014 6:44:28 PM*
%MOIN*%
G04 Gerber Fmt 3.4, Leading zero omitted, Abs format*
%FSLAX34Y34*%
G01*
G70*
G90*
G04 APERTURE LIST*
%ADD10C,0.00590551*%
%ADD11C,0.011811*%
%ADD12C,0.005*%
%ADD13C,0.008*%
%ADD14C,0.012*%
%ADD15C,0.0001*%
G04 APERTURE END LIST*
G54D10*
G54D11*
X77911Y-56910D02*
X77995Y-56939D01*
X78136Y-56939D01*
X78192Y-56910D01*
X78220Y-56882D01*
X78248Y-56826D01*
X78248Y-56770D01*
X78220Y-56714D01*
X78192Y-56685D01*
X78136Y-56657D01*
X78023Y-56629D01*
X77967Y-56601D01*
X77939Y-56573D01*
X77911Y-56517D01*
X77911Y-56460D01*
X77939Y-56404D01*
X77967Y-56376D01*
X78023Y-56348D01*
X78164Y-56348D01*
X78248Y-56376D01*
X78614Y-56348D02*
X78726Y-56348D01*
X78782Y-56376D01*
X78839Y-56432D01*
X78867Y-56545D01*
X78867Y-56742D01*
X78839Y-56854D01*
X78782Y-56910D01*
X78726Y-56939D01*
X78614Y-56939D01*
X78557Y-56910D01*
X78501Y-56854D01*
X78473Y-56742D01*
X78473Y-56545D01*
X78501Y-56432D01*
X78557Y-56376D01*
X78614Y-56348D01*
X79120Y-56939D02*
X79120Y-56348D01*
X79739Y-56882D02*
X79710Y-56910D01*
X79626Y-56939D01*
X79570Y-56939D01*
X79485Y-56910D01*
X79429Y-56854D01*
X79401Y-56798D01*
X79373Y-56685D01*
X79373Y-56601D01*
X79401Y-56489D01*
X79429Y-56432D01*
X79485Y-56376D01*
X79570Y-56348D01*
X79626Y-56348D01*
X79710Y-56376D01*
X79739Y-56404D01*
X79992Y-56714D02*
X80442Y-56714D01*
X80723Y-56939D02*
X80723Y-56348D01*
X81060Y-56939D01*
X81060Y-56348D01*
X78417Y-65539D02*
X78417Y-64948D01*
X78614Y-65370D01*
X78811Y-64948D01*
X78811Y-65539D01*
X79064Y-65510D02*
X79148Y-65539D01*
X79289Y-65539D01*
X79345Y-65510D01*
X79373Y-65482D01*
X79401Y-65426D01*
X79401Y-65370D01*
X79373Y-65314D01*
X79345Y-65285D01*
X79289Y-65257D01*
X79176Y-65229D01*
X79120Y-65201D01*
X79092Y-65173D01*
X79064Y-65117D01*
X79064Y-65060D01*
X79092Y-65004D01*
X79120Y-64976D01*
X79176Y-64948D01*
X79317Y-64948D01*
X79401Y-64976D01*
X79767Y-64948D02*
X79879Y-64948D01*
X79935Y-64976D01*
X79992Y-65032D01*
X80020Y-65145D01*
X80020Y-65342D01*
X79992Y-65454D01*
X79935Y-65510D01*
X79879Y-65539D01*
X79767Y-65539D01*
X79710Y-65510D01*
X79654Y-65454D01*
X79626Y-65342D01*
X79626Y-65145D01*
X79654Y-65032D01*
X79710Y-64976D01*
X79767Y-64948D01*
X80273Y-65539D02*
X80273Y-64948D01*
X80498Y-64948D01*
X80554Y-64976D01*
X80582Y-65004D01*
X80610Y-65060D01*
X80610Y-65145D01*
X80582Y-65201D01*
X80554Y-65229D01*
X80498Y-65257D01*
X80273Y-65257D01*
X78164Y-70448D02*
X78501Y-70448D01*
X78332Y-71039D02*
X78332Y-70448D01*
X78670Y-71010D02*
X78754Y-71039D01*
X78895Y-71039D01*
X78951Y-71010D01*
X78979Y-70982D01*
X79007Y-70926D01*
X79007Y-70870D01*
X78979Y-70814D01*
X78951Y-70785D01*
X78895Y-70757D01*
X78782Y-70729D01*
X78726Y-70701D01*
X78698Y-70673D01*
X78670Y-70617D01*
X78670Y-70560D01*
X78698Y-70504D01*
X78726Y-70476D01*
X78782Y-70448D01*
X78923Y-70448D01*
X79007Y-70476D01*
X79232Y-71010D02*
X79317Y-71039D01*
X79457Y-71039D01*
X79514Y-71010D01*
X79542Y-70982D01*
X79570Y-70926D01*
X79570Y-70870D01*
X79542Y-70814D01*
X79514Y-70785D01*
X79457Y-70757D01*
X79345Y-70729D01*
X79289Y-70701D01*
X79260Y-70673D01*
X79232Y-70617D01*
X79232Y-70560D01*
X79260Y-70504D01*
X79289Y-70476D01*
X79345Y-70448D01*
X79485Y-70448D01*
X79570Y-70476D01*
X79935Y-70448D02*
X80048Y-70448D01*
X80104Y-70476D01*
X80160Y-70532D01*
X80188Y-70645D01*
X80188Y-70842D01*
X80160Y-70954D01*
X80104Y-71010D01*
X80048Y-71039D01*
X79935Y-71039D01*
X79879Y-71010D01*
X79823Y-70954D01*
X79795Y-70842D01*
X79795Y-70645D01*
X79823Y-70532D01*
X79879Y-70476D01*
X79935Y-70448D01*
X80442Y-71039D02*
X80442Y-70448D01*
X80667Y-70448D01*
X80723Y-70476D01*
X80751Y-70504D01*
X80779Y-70560D01*
X80779Y-70645D01*
X80751Y-70701D01*
X80723Y-70729D01*
X80667Y-70757D01*
X80442Y-70757D01*
G54D12*
X79111Y-71850D02*
G75*
G03X79111Y-71850I-111J0D01*
G74*
G01*
X80500Y-73600D02*
X80500Y-71600D01*
X80500Y-71600D02*
X78700Y-71600D01*
X78700Y-71600D02*
X78700Y-73600D01*
X78700Y-73600D02*
X80500Y-73600D01*
G54D13*
X79800Y-57700D02*
X79800Y-58000D01*
X79800Y-58000D02*
X79200Y-58000D01*
X79200Y-58000D02*
X79200Y-57700D01*
X80400Y-62100D02*
X78600Y-62100D01*
X78600Y-62100D02*
X78600Y-57700D01*
X78600Y-57700D02*
X80400Y-57700D01*
X80400Y-57700D02*
X80400Y-62100D01*
G54D14*
X84300Y-55900D02*
X84300Y-63900D01*
X84300Y-63900D02*
X83300Y-63900D01*
X83300Y-63900D02*
X83300Y-55900D01*
X83300Y-55900D02*
X84300Y-55900D01*
X83300Y-56900D02*
X84300Y-56900D01*
X74700Y-63900D02*
X74700Y-55900D01*
X74700Y-55900D02*
X75700Y-55900D01*
X75700Y-55900D02*
X75700Y-63900D01*
X75700Y-63900D02*
X74700Y-63900D01*
X75700Y-62900D02*
X74700Y-62900D01*
X84300Y-69100D02*
X84300Y-69100D01*
X84300Y-69100D02*
X84300Y-76100D01*
X84300Y-76100D02*
X83300Y-76100D01*
X83300Y-76100D02*
X83300Y-69100D01*
X83300Y-69100D02*
X84300Y-69100D01*
X83300Y-70100D02*
X83300Y-70100D01*
X83300Y-70100D02*
X84300Y-70100D01*
X74700Y-76100D02*
X74700Y-76100D01*
X74700Y-76100D02*
X74700Y-69100D01*
X74700Y-69100D02*
X75700Y-69100D01*
X75700Y-69100D02*
X75700Y-76100D01*
X75700Y-76100D02*
X74700Y-76100D01*
X75700Y-75100D02*
X75700Y-75100D01*
X75700Y-75100D02*
X74700Y-75100D01*
X84300Y-64600D02*
X84300Y-64600D01*
X83300Y-64600D02*
X84300Y-64600D01*
X84300Y-64600D02*
X84300Y-64600D01*
X84300Y-64600D02*
X84300Y-68600D01*
X84300Y-68600D02*
X83300Y-68600D01*
X83300Y-68600D02*
X83300Y-64600D01*
X83300Y-65600D02*
X84300Y-65600D01*
X74700Y-68500D02*
X74700Y-68500D01*
X75700Y-68500D02*
X74700Y-68500D01*
X74700Y-68500D02*
X74700Y-68500D01*
X74700Y-68500D02*
X74700Y-64500D01*
X74700Y-64500D02*
X75700Y-64500D01*
X75700Y-64500D02*
X75700Y-68500D01*
X75700Y-67500D02*
X74700Y-67500D01*
G54D13*
X78875Y-66475D02*
X79350Y-65975D01*
X78875Y-65975D02*
X78875Y-67225D01*
X78875Y-67225D02*
X80125Y-67225D01*
X80125Y-67225D02*
X80125Y-65975D01*
X80125Y-65975D02*
X78875Y-65975D01*
G54D15*
G36*
X80433Y-74879D02*
X80430Y-74970D01*
X80409Y-75015D01*
X80400Y-75018D01*
X80400Y-74881D01*
X80381Y-74790D01*
X80321Y-74744D01*
X80231Y-74733D01*
X80171Y-74704D01*
X80116Y-74632D01*
X80084Y-74560D01*
X80088Y-74507D01*
X80129Y-74439D01*
X80136Y-74429D01*
X80208Y-74327D01*
X80124Y-74243D01*
X80040Y-74159D01*
X79941Y-74232D01*
X79870Y-74279D01*
X79818Y-74286D01*
X79749Y-74258D01*
X79741Y-74254D01*
X79657Y-74185D01*
X79619Y-74084D01*
X79597Y-74005D01*
X79558Y-73972D01*
X79484Y-73966D01*
X79411Y-73972D01*
X79374Y-74002D01*
X79354Y-74076D01*
X79350Y-74097D01*
X79307Y-74211D01*
X79231Y-74269D01*
X79128Y-74268D01*
X79036Y-74225D01*
X78930Y-74158D01*
X78848Y-74234D01*
X78767Y-74310D01*
X78837Y-74423D01*
X78880Y-74506D01*
X78886Y-74571D01*
X78867Y-74630D01*
X78823Y-74699D01*
X78747Y-74736D01*
X78697Y-74746D01*
X78613Y-74764D01*
X78575Y-74796D01*
X78566Y-74860D01*
X78566Y-74879D01*
X78572Y-74953D01*
X78604Y-74990D01*
X78680Y-75009D01*
X78692Y-75011D01*
X78784Y-75037D01*
X78836Y-75089D01*
X78858Y-75138D01*
X78880Y-75220D01*
X78866Y-75289D01*
X78833Y-75349D01*
X78793Y-75420D01*
X78788Y-75463D01*
X78822Y-75507D01*
X78841Y-75527D01*
X78896Y-75579D01*
X78933Y-75593D01*
X78981Y-75570D01*
X79033Y-75533D01*
X79110Y-75492D01*
X79171Y-75483D01*
X79175Y-75485D01*
X79214Y-75474D01*
X79258Y-75409D01*
X79298Y-75321D01*
X79372Y-75138D01*
X79302Y-75069D01*
X79235Y-74960D01*
X79227Y-74841D01*
X79277Y-74727D01*
X79326Y-74675D01*
X79438Y-74611D01*
X79544Y-74613D01*
X79652Y-74681D01*
X79669Y-74697D01*
X79747Y-74808D01*
X79759Y-74919D01*
X79705Y-75034D01*
X79688Y-75055D01*
X79610Y-75150D01*
X79689Y-75328D01*
X79741Y-75433D01*
X79784Y-75482D01*
X79820Y-75486D01*
X79880Y-75491D01*
X79955Y-75531D01*
X79959Y-75534D01*
X80045Y-75602D01*
X80126Y-75522D01*
X80178Y-75464D01*
X80186Y-75421D01*
X80154Y-75361D01*
X80148Y-75353D01*
X80106Y-75239D01*
X80124Y-75134D01*
X80195Y-75053D01*
X80276Y-75019D01*
X80357Y-74992D01*
X80392Y-74952D01*
X80400Y-74881D01*
X80400Y-75018D01*
X80354Y-75036D01*
X80302Y-75045D01*
X80213Y-75067D01*
X80169Y-75107D01*
X80150Y-75165D01*
X80153Y-75288D01*
X80188Y-75365D01*
X80224Y-75434D01*
X80224Y-75480D01*
X80182Y-75532D01*
X80160Y-75554D01*
X80072Y-75642D01*
X79961Y-75576D01*
X79875Y-75536D01*
X79806Y-75522D01*
X79796Y-75523D01*
X79754Y-75509D01*
X79706Y-75442D01*
X79659Y-75343D01*
X79575Y-75150D01*
X79654Y-75055D01*
X79721Y-74938D01*
X79721Y-74825D01*
X79655Y-74719D01*
X79651Y-74715D01*
X79553Y-74646D01*
X79457Y-74644D01*
X79354Y-74707D01*
X79353Y-74708D01*
X79275Y-74813D01*
X79259Y-74924D01*
X79306Y-75029D01*
X79337Y-75062D01*
X79407Y-75128D01*
X79328Y-75332D01*
X79280Y-75445D01*
X79241Y-75506D01*
X79202Y-75527D01*
X79182Y-75527D01*
X79107Y-75539D01*
X79033Y-75575D01*
X78968Y-75618D01*
X78923Y-75625D01*
X78874Y-75592D01*
X78819Y-75536D01*
X78726Y-75439D01*
X78798Y-75342D01*
X78844Y-75268D01*
X78849Y-75209D01*
X78829Y-75155D01*
X78766Y-75077D01*
X78702Y-75046D01*
X78603Y-75021D01*
X78553Y-74991D01*
X78535Y-74940D01*
X78533Y-74885D01*
X78557Y-74778D01*
X78630Y-74716D01*
X78731Y-74700D01*
X78803Y-74673D01*
X78840Y-74604D01*
X78838Y-74509D01*
X78801Y-74418D01*
X78734Y-74311D01*
X78832Y-74217D01*
X78929Y-74124D01*
X79036Y-74192D01*
X79147Y-74236D01*
X79237Y-74218D01*
X79300Y-74139D01*
X79323Y-74070D01*
X79347Y-73993D01*
X79386Y-73956D01*
X79464Y-73941D01*
X79489Y-73939D01*
X79577Y-73936D01*
X79620Y-73955D01*
X79640Y-74013D01*
X79648Y-74060D01*
X79690Y-74177D01*
X79761Y-74238D01*
X79854Y-74240D01*
X79932Y-74200D01*
X80015Y-74148D01*
X80072Y-74141D01*
X80128Y-74181D01*
X80160Y-74216D01*
X80215Y-74287D01*
X80226Y-74339D01*
X80192Y-74400D01*
X80169Y-74430D01*
X80124Y-74530D01*
X80140Y-74618D01*
X80212Y-74684D01*
X80301Y-74713D01*
X80383Y-74729D01*
X80421Y-74758D01*
X80432Y-74821D01*
X80433Y-74879D01*
X80433Y-74879D01*
X80433Y-74879D01*
G37*
M02*
