M48
INCH,TZ
T1C0.032
T2C0.040
%
G90
G05
T1
X75200Y-60400
T2
X75200Y-56400
X75200Y-57400
X75200Y-58400
X75200Y-59400
X75200Y-61400
X75200Y-62400
X75200Y-63400
X75200Y-65000
X75200Y-66000
X75200Y-67000
X75200Y-68000
X75200Y-69600
X75200Y-70600
X75200Y-71600
X75200Y-72600
X75200Y-73600
X75200Y-74600
X75200Y-75600
X83800Y-56400
X83800Y-57400
X83800Y-58400
X83800Y-59400
X83800Y-60400
X83800Y-61400
X83800Y-62400
X83800Y-63400
X83800Y-65100
X83800Y-66100
X83800Y-67100
X83800Y-68100
X83800Y-69600
X83800Y-70600
X83800Y-71600
X83800Y-72600
X83800Y-73600
X83800Y-74600
X83800Y-75600
T0
M30
