G04 (created by PCBNEW (2013-07-07 BZR 4022)-stable) date 1/28/2014 6:44:28 PM*
%MOIN*%
G04 Gerber Fmt 3.4, Leading zero omitted, Abs format*
%FSLAX34Y34*%
G01*
G70*
G90*
G04 APERTURE LIST*
%ADD10C,0.00590551*%
%ADD11C,0.011811*%
%ADD12R,0.0579X0.0165*%
%ADD13R,0.045X0.02*%
%ADD14R,0.06X0.06*%
%ADD15C,0.06*%
%ADD16C,0.055*%
%ADD17R,0.05X0.015*%
G04 APERTURE END LIST*
G54D10*
G54D11*
X76141Y-77310D02*
X76222Y-77339D01*
X76362Y-77339D01*
X76422Y-77310D01*
X76454Y-77282D01*
X76489Y-77226D01*
X76496Y-77170D01*
X76475Y-77114D01*
X76450Y-77085D01*
X76397Y-77057D01*
X76288Y-77029D01*
X76236Y-77001D01*
X76211Y-76973D01*
X76190Y-76917D01*
X76197Y-76860D01*
X76232Y-76804D01*
X76264Y-76776D01*
X76324Y-76748D01*
X76464Y-76748D01*
X76545Y-76776D01*
X76812Y-77339D02*
X76759Y-77310D01*
X76735Y-77282D01*
X76714Y-77226D01*
X76735Y-77057D01*
X76770Y-77001D01*
X76802Y-76973D01*
X76861Y-76945D01*
X76946Y-76945D01*
X76998Y-76973D01*
X77023Y-77001D01*
X77044Y-77057D01*
X77023Y-77226D01*
X76988Y-77282D01*
X76956Y-77310D01*
X76897Y-77339D01*
X76812Y-77339D01*
X77346Y-77339D02*
X77294Y-77310D01*
X77273Y-77254D01*
X77336Y-76748D01*
X77825Y-77339D02*
X77898Y-76748D01*
X77828Y-77310D02*
X77768Y-77339D01*
X77656Y-77339D01*
X77603Y-77310D01*
X77578Y-77282D01*
X77557Y-77226D01*
X77578Y-77057D01*
X77614Y-77001D01*
X77645Y-76973D01*
X77705Y-76945D01*
X77817Y-76945D01*
X77870Y-76973D01*
X78334Y-77310D02*
X78274Y-77339D01*
X78162Y-77339D01*
X78109Y-77310D01*
X78088Y-77254D01*
X78116Y-77029D01*
X78151Y-76973D01*
X78211Y-76945D01*
X78324Y-76945D01*
X78376Y-76973D01*
X78397Y-77029D01*
X78390Y-77085D01*
X78102Y-77142D01*
X78612Y-77339D02*
X78661Y-76945D01*
X78647Y-77057D02*
X78682Y-77001D01*
X78714Y-76973D01*
X78774Y-76945D01*
X78830Y-76945D01*
X79427Y-77339D02*
X79501Y-76748D01*
X79726Y-76748D01*
X79779Y-76776D01*
X79804Y-76804D01*
X79825Y-76860D01*
X79814Y-76945D01*
X79779Y-77001D01*
X79747Y-77029D01*
X79688Y-77057D01*
X79463Y-77057D01*
X80018Y-77339D02*
X80067Y-76945D01*
X80053Y-77057D02*
X80088Y-77001D01*
X80120Y-76973D01*
X80180Y-76945D01*
X80236Y-76945D01*
X80637Y-77339D02*
X80675Y-77029D01*
X80654Y-76973D01*
X80602Y-76945D01*
X80489Y-76945D01*
X80429Y-76973D01*
X80640Y-77310D02*
X80580Y-77339D01*
X80440Y-77339D01*
X80387Y-77310D01*
X80366Y-77254D01*
X80373Y-77198D01*
X80408Y-77142D01*
X80468Y-77114D01*
X80609Y-77114D01*
X80668Y-77085D01*
X81174Y-77310D02*
X81115Y-77339D01*
X81002Y-77339D01*
X80950Y-77310D01*
X80925Y-77282D01*
X80904Y-77226D01*
X80925Y-77057D01*
X80960Y-77001D01*
X80992Y-76973D01*
X81051Y-76945D01*
X81164Y-76945D01*
X81217Y-76973D01*
X81389Y-76945D02*
X81614Y-76945D01*
X81498Y-76748D02*
X81435Y-77254D01*
X81456Y-77310D01*
X81508Y-77339D01*
X81565Y-77339D01*
X81762Y-77339D02*
X81811Y-76945D01*
X81835Y-76748D02*
X81804Y-76776D01*
X81828Y-76804D01*
X81860Y-76776D01*
X81835Y-76748D01*
X81828Y-76804D01*
X82299Y-77310D02*
X82240Y-77339D01*
X82127Y-77339D01*
X82074Y-77310D01*
X82050Y-77282D01*
X82029Y-77226D01*
X82050Y-77057D01*
X82085Y-77001D01*
X82117Y-76973D01*
X82176Y-76945D01*
X82289Y-76945D01*
X82342Y-76973D01*
X82777Y-77310D02*
X82718Y-77339D01*
X82605Y-77339D01*
X82552Y-77310D01*
X82531Y-77254D01*
X82559Y-77029D01*
X82595Y-76973D01*
X82654Y-76945D01*
X82767Y-76945D01*
X82820Y-76973D01*
X82841Y-77029D01*
X82834Y-77085D01*
X82545Y-77142D01*
G54D12*
X78498Y-72600D03*
X78498Y-72856D03*
X78498Y-73112D03*
X78498Y-73368D03*
X80702Y-73368D03*
X78498Y-71832D03*
X78498Y-72088D03*
X78498Y-72344D03*
X80702Y-73112D03*
X80702Y-72856D03*
X80702Y-72600D03*
X80702Y-72344D03*
X80702Y-72088D03*
X80702Y-71832D03*
G54D13*
X80750Y-58150D03*
X80750Y-59150D03*
X80750Y-59650D03*
X80750Y-60150D03*
X80750Y-60650D03*
X80750Y-61150D03*
X80750Y-61650D03*
X78250Y-61650D03*
X78250Y-61150D03*
X78250Y-60650D03*
X78250Y-60150D03*
X78250Y-59650D03*
X78250Y-59150D03*
X78250Y-58650D03*
X78250Y-58150D03*
X80750Y-58650D03*
G54D14*
X83800Y-56400D03*
G54D15*
X83800Y-57400D03*
X83800Y-58400D03*
X83800Y-59400D03*
X83800Y-60400D03*
X83800Y-61400D03*
X83800Y-62400D03*
X83800Y-63400D03*
G54D14*
X75200Y-63400D03*
G54D15*
X75200Y-62400D03*
X75200Y-61400D03*
G54D16*
X75200Y-60400D03*
G54D15*
X75200Y-59400D03*
X75200Y-58400D03*
X75200Y-57400D03*
X75200Y-56400D03*
G54D14*
X83800Y-69600D03*
G54D15*
X83800Y-70600D03*
X83800Y-71600D03*
X83800Y-72600D03*
X83800Y-73600D03*
X83800Y-74600D03*
X83800Y-75600D03*
G54D14*
X75200Y-75600D03*
G54D15*
X75200Y-74600D03*
X75200Y-73600D03*
X75200Y-72600D03*
X75200Y-71600D03*
X75200Y-70600D03*
X75200Y-69600D03*
G54D14*
X83800Y-65100D03*
G54D15*
X83800Y-66100D03*
X83800Y-67100D03*
X83800Y-68100D03*
G54D14*
X75200Y-68000D03*
G54D15*
X75200Y-67000D03*
X75200Y-66000D03*
X75200Y-65000D03*
G54D17*
X78650Y-66216D03*
X78650Y-66472D03*
X78650Y-66728D03*
X78650Y-66984D03*
X80350Y-66984D03*
X80350Y-66728D03*
X80350Y-66472D03*
X80350Y-66216D03*
M02*
